<svg width="72" height="72" viewBox="0 0 72 72" fill="none" xmlns="http://www.w3.org/2000/svg">
<g clip-path="url(#clip0_2_178)">
<path d="M57.4078 19.2217C58.6192 10.8596 53.4302 2.89981 45.2912 0.633374C37.1516 -1.63306 28.5956 2.49971 25.311 10.2837C21.4776 7.66171 16.3976 7.7818 12.693 10.5825C8.9879 13.3832 7.48652 18.2376 8.96388 22.6404C2.5887 25.2408 -1.05493 31.9879 0.267793 38.7445C1.58993 45.501 7.50878 50.3771 14.3936 50.3812H15.5933C16.2558 50.3812 16.793 49.8441 16.793 49.1815C16.793 48.519 16.2558 47.9818 15.5933 47.9818H14.3936C8.44956 47.9795 3.40296 43.627 2.5272 37.748C1.65085 31.869 5.20954 26.2343 10.8941 24.4992C11.2291 24.3961 11.5021 24.1518 11.6421 23.8308C11.7821 23.5092 11.7745 23.143 11.621 22.8279C11.0722 21.6938 10.7892 20.449 10.7945 19.1889C10.7968 15.8189 12.8125 12.7763 15.9143 11.4594C19.0167 10.1425 22.6052 10.8057 25.0316 13.1447C25.3333 13.4347 25.7644 13.5466 26.1686 13.4394C26.5734 13.3328 26.8927 13.0229 27.0122 12.6222C29.2645 5.17151 37.031 0.860662 44.5449 2.88926C52.0595 4.91845 56.6005 12.5519 54.7975 20.1239C54.7084 20.4976 54.8039 20.8913 55.054 21.1824C55.3042 21.4741 55.6791 21.6282 56.0616 21.5971C56.17 21.5883 56.2696 21.5883 56.3832 21.5883C63.6716 21.5883 69.5799 27.4967 69.5799 34.7851C69.5799 42.0735 63.6716 47.9818 56.3832 47.9818C55.7207 47.9818 55.1835 48.519 55.1835 49.1815C55.1835 49.8441 55.7207 50.3812 56.3832 50.3812C64.8051 50.3924 71.7146 43.7149 71.9911 35.2977C72.2676 26.8804 65.8121 19.7642 57.4078 19.2217Z" fill="black"/>
<path d="M52.7419 57.7875C52.763 57.7195 52.777 57.6498 52.784 57.5795V51.581C52.784 46.9433 49.0244 43.1831 44.3861 43.1831C39.7484 43.1831 35.9882 46.9433 35.9882 51.581V63.578C35.9882 66.8913 33.3023 69.5765 29.9897 69.5765C26.677 69.5765 23.9912 66.8913 23.9912 63.578V50.1604C25.424 49.6543 26.3841 48.3023 26.3906 46.7822V44.9445C27.9066 44.4109 29.2867 43.5509 30.4337 42.425C32.4594 40.3994 33.5947 37.6502 33.5888 34.7851V31.186C33.5888 29.861 32.5145 28.7866 31.1894 28.7866H28.79C28.1275 28.7866 27.5903 29.3238 27.5903 29.9863C27.5903 30.6489 28.1275 31.186 28.79 31.186H31.1894V34.7851C31.1929 37.0117 30.3107 39.1475 28.7373 40.7227C26.6343 42.8292 23.5735 43.6652 20.692 42.9206C16.9828 41.9629 14.3918 38.6162 14.3935 34.7851V31.186H16.793C17.4555 31.186 17.9927 30.6489 17.9927 29.9863C17.9927 29.3238 17.4555 28.7866 16.793 28.7866H14.3935C13.0685 28.7866 11.9941 29.861 11.9941 31.186V34.7851C11.993 39.3625 14.8774 43.4426 19.1924 44.9686V46.7822C19.1988 48.3023 20.1589 49.6543 21.5918 50.1604V63.578C21.5918 68.2163 25.352 71.9759 29.9897 71.9759C34.628 71.9759 38.3876 68.2163 38.3876 63.578V51.581C38.3876 48.2683 41.0735 45.5825 44.3861 45.5825C47.6988 45.5825 50.3846 48.2683 50.3846 51.581V57.5795C50.3917 57.6498 50.4057 57.7195 50.4268 57.7875C48.7591 58.3539 47.7462 60.0439 48.0333 61.782C48.3203 63.5194 49.8229 64.7941 51.5843 64.7941C53.3458 64.7941 54.8484 63.5194 55.1354 61.782C55.4225 60.0439 54.4096 58.3539 52.7419 57.7875ZM23.9912 46.7822C23.9912 47.4447 23.454 47.9819 22.7915 47.9819C22.1289 47.9819 21.5918 47.4447 21.5918 46.7822V45.5157C22.389 45.6053 23.1939 45.6053 23.9912 45.5157V46.7822ZM51.5843 62.3783C50.9218 62.3783 50.3846 61.8411 50.3846 61.1786C50.3846 60.5161 50.9218 59.9789 51.5843 59.9789C52.2469 59.9789 52.784 60.5161 52.784 61.1786C52.784 61.8411 52.2469 62.3783 51.5843 62.3783Z" fill="black"/>
</g>
<defs>
<clipPath id="clip0_2_178">
<rect width="72" height="72" fill="white"/>
</clipPath>
</defs>
</svg>
