<svg width="72" height="72" viewBox="0 0 72 72" fill="none" xmlns="http://www.w3.org/2000/svg">
<g clip-path="url(#clip0_2_118)">
<g clip-path="url(#clip1_2_118)">
<path d="M13.1998 25.2002H10.7998V27.6002H13.1998V25.2002Z" fill="black"/>
</g>
</g>
<g clip-path="url(#clip2_2_118)">
<g clip-path="url(#clip3_2_118)">
<path d="M27.5996 25.2002H15.5996V27.6002H27.5996V25.2002Z" fill="black"/>
</g>
</g>
<g clip-path="url(#clip4_2_118)">
<g clip-path="url(#clip5_2_118)">
<path d="M27.6004 30H8.40039V32.4H27.6004V30Z" fill="black"/>
</g>
</g>
<g clip-path="url(#clip6_2_118)">
<g clip-path="url(#clip7_2_118)">
<path d="M22.8004 34.7998H8.40039V37.1998H22.8004V34.7998Z" fill="black"/>
</g>
</g>
<g clip-path="url(#clip8_2_118)">
<g clip-path="url(#clip9_2_118)">
<path d="M37.1998 60H34.7998V62.4H37.1998V60Z" fill="black"/>
</g>
</g>
<g clip-path="url(#clip10_2_118)">
<g clip-path="url(#clip11_2_118)">
<path d="M39.6002 9.6001H37.2002V12.0001H39.6002V9.6001Z" fill="black"/>
</g>
</g>
<g clip-path="url(#clip12_2_118)">
<g clip-path="url(#clip13_2_118)">
<path d="M34.8004 9.6001H32.4004V12.0001H34.8004V9.6001Z" fill="black"/>
</g>
</g>
<g clip-path="url(#clip14_2_118)">
<g clip-path="url(#clip15_2_118)">
<path d="M66.0004 23.9998H55.2004V9.5998C55.2004 6.94885 53.0513 4.7998 50.4004 4.7998H21.6004C18.9494 4.7998 16.8004 6.94885 16.8004 9.5998V20.3998H6.00039C4.01214 20.3998 2.40039 22.0116 2.40039 23.9998V38.3998C2.40039 40.3881 4.01214 41.9998 6.00039 41.9998H16.8004V62.3998C16.8004 65.0508 18.9494 67.1998 21.6004 67.1998H50.4004C53.0513 67.1998 55.2004 65.0508 55.2004 62.3998V47.9998H66.0004C67.9886 47.9998 69.6004 46.3881 69.6004 44.3998V27.5998C69.6004 25.6116 67.9886 23.9998 66.0004 23.9998ZM19.2004 9.5998C19.2004 8.27425 20.2748 7.1998 21.6004 7.1998H50.4004C51.7259 7.1998 52.8004 8.27425 52.8004 9.5998V14.3998H19.2004V9.5998ZM6.00039 39.5998C5.33769 39.5998 4.80039 39.0625 4.80039 38.3998V23.9998C4.80039 23.3371 5.33769 22.7998 6.00039 22.7998H30.0004C30.6631 22.7998 31.2004 23.3371 31.2004 23.9998V38.3998C31.2004 39.0625 30.6631 39.5998 30.0004 39.5998H26.4004C25.7377 39.5998 25.2004 40.1371 25.2004 40.7998V43.357L19.8664 39.8014C19.669 39.6703 19.4374 39.6003 19.2004 39.5998H6.00039ZM52.8004 62.3998C52.8004 63.7254 51.7259 64.7998 50.4004 64.7998H21.6004C20.2748 64.7998 19.2004 63.7254 19.2004 62.3998V57.5998H52.8004V62.3998ZM52.8004 55.1998H19.2004V42.2398L25.7344 46.5958C26.2856 46.9636 27.0308 46.8149 27.3986 46.2635C27.5297 46.0671 27.5999 45.8361 27.6004 45.5998V41.9998H30.0004C31.9886 41.9998 33.6004 40.3881 33.6004 38.3998V23.9998C33.6004 22.0116 31.9886 20.3998 30.0004 20.3998H19.2004V16.7998H52.8004V23.9998H42.0004C40.0121 23.9998 38.4004 25.6116 38.4004 27.5998V44.3998C38.4004 46.3881 40.0121 47.9998 42.0004 47.9998H44.4004V51.5998C44.4002 52.2625 44.9375 52.8 45.6002 52.8C45.8374 52.8 46.0691 52.7298 46.2664 52.5982L52.8004 48.2398V55.1998ZM67.2004 44.3998C67.2004 45.0625 66.6631 45.5998 66.0004 45.5998H52.8004C52.5634 45.6003 52.3318 45.6703 52.1344 45.8014L46.8004 49.357V46.7998C46.8004 46.1371 46.2631 45.5998 45.6004 45.5998H42.0004C41.3377 45.5998 40.8004 45.0625 40.8004 44.3998V27.5998C40.8004 26.9371 41.3377 26.3998 42.0004 26.3998H66.0004C66.6631 26.3998 67.2004 26.9371 67.2004 27.5998V44.3998Z" fill="black"/>
</g>
</g>
<g clip-path="url(#clip16_2_118)">
<g clip-path="url(#clip17_2_118)">
<path d="M14.4 63.6V54H12V63.6C12.0052 68.2369 15.763 71.9947 20.4 72V69.6C17.088 69.5961 14.4039 66.912 14.4 63.6Z" fill="black"/>
</g>
</g>
<g clip-path="url(#clip18_2_118)">
<g clip-path="url(#clip19_2_118)">
<path d="M14.4 49.2002H12V51.6002H14.4V49.2002Z" fill="black"/>
</g>
</g>
<g clip-path="url(#clip20_2_118)">
<g clip-path="url(#clip21_2_118)">
<path d="M51.6 0H48V2.4H51.6C54.912 2.4039 57.5961 5.088 57.6 8.4V14.4H60V8.4C59.9948 3.76305 56.2369 0.00525 51.6 0Z" fill="black"/>
</g>
</g>
<g clip-path="url(#clip22_2_118)">
<g clip-path="url(#clip23_2_118)">
<path d="M59.9996 16.7998H57.5996V19.1998H59.9996V16.7998Z" fill="black"/>
</g>
</g>
<g clip-path="url(#clip24_2_118)">
<g clip-path="url(#clip25_2_118)">
<path d="M59.9998 32.3998H57.5998V29.9998C57.5998 29.3371 57.0625 28.7998 56.3998 28.7998H51.5998C50.9371 28.7998 50.3998 29.3371 50.3998 29.9998V32.3998H47.9998C47.3371 32.3998 46.7998 32.9371 46.7998 33.5998V38.3998C46.7998 39.0625 47.3371 39.5998 47.9998 39.5998H50.3998V41.9998C50.3998 42.6625 50.9371 43.1998 51.5998 43.1998H56.3998C57.0625 43.1998 57.5998 42.6625 57.5998 41.9998V39.5998H59.9998C60.6625 39.5998 61.1998 39.0625 61.1998 38.3998V33.5998C61.1998 32.9371 60.6625 32.3998 59.9998 32.3998ZM58.7998 37.1998H56.3998C55.7371 37.1998 55.1998 37.7371 55.1998 38.3998V40.7998H52.7998V38.3998C52.7998 37.7371 52.2625 37.1998 51.5998 37.1998H49.1998V34.7998H51.5998C52.2625 34.7998 52.7998 34.2625 52.7998 33.5998V31.1998H55.1998V33.5998C55.1998 34.2625 55.7371 34.7998 56.3998 34.7998H58.7998V37.1998Z" fill="black"/>
</g>
</g>
<defs>
<clipPath id="clip0_2_118">
<rect width="2.4" height="2.4" fill="white" transform="translate(10.7998 25.2002)"/>
</clipPath>
<clipPath id="clip1_2_118">
<rect width="2.4" height="2.4" fill="white" transform="translate(10.7998 25.2002)"/>
</clipPath>
<clipPath id="clip2_2_118">
<rect width="12" height="2.4" fill="white" transform="translate(15.5996 25.2002)"/>
</clipPath>
<clipPath id="clip3_2_118">
<rect width="12" height="2.4" fill="white" transform="translate(15.5996 25.2002)"/>
</clipPath>
<clipPath id="clip4_2_118">
<rect width="19.2" height="2.4" fill="white" transform="translate(8.40039 30)"/>
</clipPath>
<clipPath id="clip5_2_118">
<rect width="19.2" height="2.4" fill="white" transform="translate(8.40039 30)"/>
</clipPath>
<clipPath id="clip6_2_118">
<rect width="14.4" height="2.4" fill="white" transform="translate(8.40039 34.7998)"/>
</clipPath>
<clipPath id="clip7_2_118">
<rect width="14.4" height="2.4" fill="white" transform="translate(8.40039 34.7998)"/>
</clipPath>
<clipPath id="clip8_2_118">
<rect width="2.4" height="2.4" fill="white" transform="translate(34.7998 60)"/>
</clipPath>
<clipPath id="clip9_2_118">
<rect width="2.4" height="2.4" fill="white" transform="translate(34.7998 60)"/>
</clipPath>
<clipPath id="clip10_2_118">
<rect width="2.40001" height="2.4" fill="white" transform="translate(37.2002 9.6001)"/>
</clipPath>
<clipPath id="clip11_2_118">
<rect width="2.40001" height="2.4" fill="white" transform="translate(37.2002 9.6001)"/>
</clipPath>
<clipPath id="clip12_2_118">
<rect width="2.4" height="2.4" fill="white" transform="translate(32.4004 9.6001)"/>
</clipPath>
<clipPath id="clip13_2_118">
<rect width="2.4" height="2.4" fill="white" transform="translate(32.4004 9.6001)"/>
</clipPath>
<clipPath id="clip14_2_118">
<rect width="67.2" height="62.4" fill="white" transform="translate(2.40039 4.7998)"/>
</clipPath>
<clipPath id="clip15_2_118">
<rect width="67.2" height="62.4" fill="white" transform="translate(2.40039 4.7998)"/>
</clipPath>
<clipPath id="clip16_2_118">
<rect width="8.4" height="18" fill="white" transform="translate(12 54)"/>
</clipPath>
<clipPath id="clip17_2_118">
<rect width="8.4" height="18" fill="white" transform="translate(12 54)"/>
</clipPath>
<clipPath id="clip18_2_118">
<rect width="2.4" height="2.4" fill="white" transform="translate(12 49.2002)"/>
</clipPath>
<clipPath id="clip19_2_118">
<rect width="2.4" height="2.4" fill="white" transform="translate(12 49.2002)"/>
</clipPath>
<clipPath id="clip20_2_118">
<rect width="12" height="14.4" fill="white" transform="translate(48)"/>
</clipPath>
<clipPath id="clip21_2_118">
<rect width="12" height="14.4" fill="white" transform="translate(48)"/>
</clipPath>
<clipPath id="clip22_2_118">
<rect width="2.4" height="2.4" fill="white" transform="translate(57.5996 16.7998)"/>
</clipPath>
<clipPath id="clip23_2_118">
<rect width="2.4" height="2.4" fill="white" transform="translate(57.5996 16.7998)"/>
</clipPath>
<clipPath id="clip24_2_118">
<rect width="14.4" height="14.4" fill="white" transform="translate(46.7998 28.7998)"/>
</clipPath>
<clipPath id="clip25_2_118">
<rect width="14.4" height="14.4" fill="white" transform="translate(46.7998 28.7998)"/>
</clipPath>
</defs>
</svg>
